<svg width="42" height="41" viewBox="0 0 42 41" fill="none" xmlns="http://www.w3.org/2000/svg">
<rect x="0.816406" width="40.365" height="40.365" rx="20.1825" fill="url(#paint0_linear_105_11540)"/>
<path fill-rule="evenodd" clip-rule="evenodd" d="M9.95207 19.969C15.8357 17.4056 19.759 15.7157 21.722 14.8992C27.3269 12.5679 28.4916 12.1629 29.2507 12.1496C29.4176 12.1466 29.791 12.188 30.0328 12.3842C30.2369 12.5499 30.2931 12.7737 30.32 12.9308C30.3469 13.0879 30.3804 13.4457 30.3538 13.7253C30.05 16.9166 28.7358 24.6611 28.0672 28.2354C27.7843 29.7479 27.2272 30.255 26.6879 30.3046C25.5159 30.4125 24.6259 29.5301 23.4907 28.7859C21.7144 27.6215 20.7109 26.8967 18.9866 25.7605C16.994 24.4473 18.2857 23.7256 19.4213 22.5461C19.7185 22.2375 24.8825 17.5404 24.9825 17.1143C24.995 17.061 25.0066 16.8624 24.8886 16.7575C24.7706 16.6526 24.5964 16.6885 24.4707 16.717C24.2926 16.7574 21.4549 18.633 15.9576 22.3438C15.1522 22.8969 14.4226 23.1664 13.7689 23.1523C13.0483 23.1367 11.6621 22.7448 10.6316 22.4099C9.3677 21.999 8.36315 21.7818 8.45062 21.084C8.49618 20.7206 8.99667 20.3489 9.95207 19.969Z" fill="white"/>
<defs>
<linearGradient id="paint0_linear_105_11540" x1="20.9989" y1="0" x2="20.9989" y2="40.0656" gradientUnits="userSpaceOnUse">
<stop stop-color="#2AABEE"/>
<stop offset="1" stop-color="#229ED9"/>
</linearGradient>
</defs>
</svg>
