<svg width="41" height="41" viewBox="0 0 41 41" fill="none" xmlns="http://www.w3.org/2000/svg">
<rect x="0.636719" width="40.3651" height="40.3649" rx="20.1824" fill="#7360F2"/>
<g clip-path="url(#clip0_105_11541)">
<path d="M31.3223 9.47264C30.6231 8.82754 27.7979 6.77657 21.5048 6.74871C21.5048 6.74871 14.0836 6.30119 10.4658 9.61956C8.45202 11.6338 7.74359 14.5811 7.66886 18.2351C7.59413 21.8891 7.49745 28.7369 14.0983 30.5937H14.1047L14.1004 33.427C14.1004 33.427 14.0582 34.574 14.8135 34.8079C15.7271 35.0916 16.2633 34.2198 17.1355 33.28C17.6143 32.7641 18.2755 32.0063 18.7736 31.4271C23.2881 31.807 26.7601 30.9386 27.1545 30.8103C28.066 30.5147 33.2238 29.854 34.0627 23.0066C34.9286 15.949 33.6439 11.4848 31.3223 9.47264ZM32.0873 22.5004C31.3793 28.2176 27.1958 28.5769 26.4245 28.8243C26.0965 28.9298 23.047 29.6885 19.2123 29.4382C19.2123 29.4382 16.3549 32.8853 15.4624 33.7816C15.3231 33.9218 15.1593 33.9783 15.0499 33.9505C14.8963 33.9129 14.8541 33.7309 14.8557 33.465C14.8583 33.085 14.8802 28.7568 14.8802 28.7568C9.29639 27.2065 9.6219 21.3782 9.68522 18.3263C9.74855 15.2743 10.3219 12.7741 12.025 11.0926C15.085 8.32092 21.3887 8.73509 21.3887 8.73509C26.712 8.75831 29.2629 10.3613 29.8543 10.8984C31.8184 12.5799 32.8189 16.6038 32.0873 22.4987V22.5004Z" fill="white"/>
<path d="M24.0918 18.0751C24.0226 16.6794 23.3136 15.9463 21.9648 15.876" stroke="white" stroke-width="0.711805" stroke-linecap="round" stroke-linejoin="round"/>
<path d="M25.9187 18.6861C25.9468 17.3858 25.5617 16.2994 24.7632 15.4269C23.961 14.5513 22.8507 14.0691 21.4258 13.9648" stroke="white" stroke-width="0.711805" stroke-linecap="round" stroke-linejoin="round"/>
<path d="M27.7905 19.4159C27.7733 17.1595 27.0991 15.3824 25.7678 14.0846C24.4365 12.7868 22.7808 12.131 20.8008 12.1172" stroke="white" stroke-width="0.711805" stroke-linecap="round" stroke-linejoin="round"/>
<path d="M22.0358 22.8415C22.0358 22.8415 22.5361 22.8837 22.8054 22.5518L23.3306 21.8911C23.5839 21.5635 24.1953 21.3545 24.7939 21.688C25.2425 21.9439 25.6781 22.222 26.0989 22.5214C26.4962 22.8136 27.3097 23.4925 27.3123 23.4925C27.6998 23.8197 27.7893 24.3001 27.5255 24.8067C27.5255 24.8097 27.5234 24.8147 27.5234 24.8173C27.2327 25.3211 26.8638 25.7754 26.4303 26.1632C26.4253 26.1657 26.4253 26.1683 26.4206 26.1708C26.044 26.4855 25.674 26.6643 25.3107 26.7074C25.2572 26.7168 25.2028 26.7202 25.1486 26.7175C24.9883 26.7191 24.8289 26.6945 24.6766 26.6449L24.6647 26.6276C24.1049 26.4697 23.1702 26.0745 21.6136 25.2158C20.7128 24.7247 19.8552 24.1583 19.0501 23.5224C18.6465 23.2039 18.2615 22.8625 17.8971 22.4999L17.8582 22.4611L17.8194 22.4222L17.7806 22.383C17.7675 22.3703 17.7548 22.3572 17.7417 22.3441C17.3791 21.9797 17.0377 21.5947 16.7192 21.1911C16.0834 20.3861 15.517 19.5286 15.0258 18.6281C14.1671 17.071 13.7719 16.1372 13.614 15.5765L13.5967 15.5647C13.5472 15.4123 13.5228 15.2529 13.5245 15.0927C13.5215 15.0384 13.5248 14.9841 13.5342 14.9306C13.5795 14.568 13.7587 14.1979 14.0716 13.8202C14.0742 13.8156 14.0767 13.8156 14.0792 13.8105C14.4669 13.3771 14.9213 13.0082 15.4252 12.7179C15.4277 12.7179 15.4328 12.7154 15.4357 12.7154C15.9424 12.4515 16.4228 12.541 16.7496 12.9265C16.7521 12.929 17.4297 13.7425 17.7206 14.1398C18.02 14.561 18.2982 14.997 18.554 15.446C18.8875 16.0443 18.6785 16.6569 18.3509 16.9093L17.6902 17.4345C17.3567 17.7039 17.4006 18.2042 17.4006 18.2042C17.4006 18.2042 18.3792 21.908 22.0358 22.8415Z" fill="white"/>
</g>
<defs>
<clipPath id="clip0_105_11541">
<rect width="26.6818" height="28.1356" fill="white" transform="translate(7.65625 6.72852)"/>
</clipPath>
</defs>
</svg>
