<svg width="41" height="41" viewBox="0 0 41 41" fill="none" xmlns="http://www.w3.org/2000/svg">
<rect width="40.365" height="40.365" rx="20.1825" fill="url(#paint0_linear_105_11539)"/>
<path d="M7.94141 31.9252L9.67194 25.6411C8.60205 23.7966 8.0408 21.7077 8.04664 19.5723C8.04664 12.8808 13.5189 7.44043 20.2364 7.44043C23.4987 7.44043 26.5622 8.70307 28.8598 10.9956C31.1633 13.2881 32.432 16.3371 32.4262 19.5781C32.4262 26.2695 26.9539 31.7099 20.2305 31.7099H20.2247C18.1843 31.7099 16.179 31.1979 14.3958 30.232L7.94141 31.9252ZM14.7057 28.0384L15.074 28.2595C16.6292 29.1788 18.4123 29.6618 20.2305 29.6676H20.2364C25.8197 29.6676 30.3682 25.1465 30.3682 19.5839C30.3682 16.8899 29.3159 14.3588 27.4041 12.4503C25.4923 10.5418 22.9433 9.4944 20.2364 9.4944C14.6531 9.48859 10.1046 14.0097 10.1046 19.5723C10.1046 21.475 10.6366 23.3311 11.6539 24.937L11.8936 25.3211L10.8705 29.0392L14.7057 28.0384Z" fill="white"/>
<path d="M8.36719 31.5005L10.0393 25.4317C9.00445 23.657 8.46073 21.6379 8.46073 19.5781C8.46658 13.1195 13.7459 7.86523 20.2354 7.86523C23.3866 7.86523 26.339 9.08715 28.5607 11.2982C30.7823 13.5093 32.0042 16.4535 32.0042 19.5839C32.0042 26.0426 26.7191 31.2968 20.2354 31.2968H20.2295C18.2593 31.2968 16.3241 30.8023 14.6053 29.8713L8.36719 31.5005Z" fill="url(#paint1_linear_105_11539)"/>
<path d="M7.94141 31.9252L9.67194 25.6411C8.60205 23.7966 8.0408 21.7077 8.04664 19.5723C8.04664 12.8808 13.5189 7.44043 20.2364 7.44043C23.4987 7.44043 26.5622 8.70307 28.8598 10.9956C31.1633 13.2881 32.432 16.3371 32.4262 19.5781C32.4262 26.2695 26.9539 31.7099 20.2305 31.7099H20.2247C18.1843 31.7099 16.179 31.1979 14.3958 30.232L7.94141 31.9252ZM14.7057 28.0384L15.074 28.2595C16.6292 29.1788 18.4123 29.6618 20.2305 29.6676H20.2364C25.8197 29.6676 30.3682 25.1465 30.3682 19.5839C30.3682 16.8899 29.3159 14.3588 27.4041 12.4503C25.4923 10.5418 22.9433 9.4944 20.2364 9.4944C14.6531 9.48859 10.1046 14.0097 10.1046 19.5723C10.1046 21.475 10.6366 23.3311 11.6539 24.937L11.8936 25.3211L10.8705 29.0392L14.7057 28.0384Z" fill="url(#paint2_linear_105_11539)"/>
<path fill-rule="evenodd" clip-rule="evenodd" d="M17.1922 14.4982C16.9642 13.992 16.7245 13.9804 16.5082 13.9746C16.3328 13.9688 16.1282 13.9688 15.9236 13.9688C15.7189 13.9688 15.3915 14.0444 15.1109 14.347C14.8303 14.6495 14.0469 15.3827 14.0469 16.8781C14.0469 18.3676 15.1402 19.8106 15.2922 20.0143C15.4442 20.218 17.4027 23.3775 20.4955 24.5936C23.0679 25.606 23.5941 25.4023 24.1495 25.35C24.7049 25.2976 25.9502 24.6168 26.2074 23.907C26.4588 23.1971 26.4588 22.592 26.3828 22.4639C26.3068 22.3359 26.1022 22.2603 25.7981 22.109C25.4941 21.9577 23.9975 21.2246 23.7168 21.1198C23.4362 21.0209 23.2316 20.9686 23.0328 21.2711C22.8282 21.5737 22.2435 22.2545 22.0681 22.4581C21.8928 22.6618 21.7115 22.685 21.4075 22.5338C21.1035 22.3825 20.1213 22.0625 18.9579 21.0267C18.0517 20.2238 17.4378 19.2288 17.2624 18.9262C17.087 18.6236 17.2449 18.4607 17.3969 18.3094C17.5313 18.1756 17.7009 17.9545 17.8529 17.7799C18.0049 17.6054 18.0575 17.4774 18.1569 17.2737C18.2563 17.0701 18.2095 16.8955 18.1335 16.7442C18.0575 16.5988 17.4612 15.0976 17.1922 14.4982Z" fill="white"/>
<defs>
<linearGradient id="paint0_linear_105_11539" x1="20.1814" y1="40.363" x2="20.1814" y2="-0.00141227" gradientUnits="userSpaceOnUse">
<stop stop-color="#20B038"/>
<stop offset="1" stop-color="#60D66A"/>
</linearGradient>
<linearGradient id="paint1_linear_105_11539" x1="20.1851" y1="31.4993" x2="20.1851" y2="7.86441" gradientUnits="userSpaceOnUse">
<stop stop-color="#20B038"/>
<stop offset="1" stop-color="#60D66A"/>
</linearGradient>
<linearGradient id="paint2_linear_105_11539" x1="20.1862" y1="31.9229" x2="20.1862" y2="7.44043" gradientUnits="userSpaceOnUse">
<stop stop-color="#F9F9F9"/>
<stop offset="1" stop-color="white"/>
</linearGradient>
</defs>
</svg>
